<?xml version="1.0" standalone="no"?>
<!DOCTYPE svg PUBLIC "-//W3C//DTD SVG 20010904//EN"
 "http://www.w3.org/TR/2001/REC-SVG-20010904/DTD/svg10.dtd">
<svg version="1.0" xmlns="http://www.w3.org/2000/svg"
 width="277.000000pt" height="226.000000pt" viewBox="0 0 277.000000 226.000000"
 preserveAspectRatio="xMidYMid meet">

<g transform="translate(0.000000,226.000000) scale(0.100000,-0.100000)"
fill="#000000" stroke="none">
<path d="M282 1950 c-44 -10 -70 -36 -82 -81 -17 -61 -14 -65 295 -414 50 -56
120 -136 158 -179 l67 -77 1 -337 c1 -185 4 -348 8 -362 8 -28 335 -285 409
-321 42 -21 44 -21 88 -4 87 33 84 13 84 550 1 354 4 474 13 486 7 9 42 49 78
90 37 41 148 168 248 282 l181 208 0 49 c0 64 -28 99 -90 111 -56 10 -1413 10
-1458 -1z m1472 -76 c9 -8 16 -24 16 -35 0 -18 -65 -99 -179 -224 -25 -28
-111 -126 -191 -218 l-145 -167 -5 -479 c-5 -453 -6 -480 -24 -500 -40 -44
-36 -46 -378 216 l-58 44 0 342 c0 274 -3 347 -14 369 -8 15 -110 136 -228
269 -322 366 -306 343 -271 381 15 17 51 18 739 18 644 0 724 -2 738 -16z"/>
<path d="M2007 1873 c-4 -3 -7 -17 -7 -30 l0 -23 289 0 c302 0 311 1 289 43
-8 16 -32 17 -287 17 -153 0 -281 -3 -284 -7z"/>
<path d="M1712 1121 c-8 -5 -12 -17 -10 -27 3 -18 21 -19 432 -22 448 -2 467
-1 445 39 -9 18 -28 19 -432 19 -232 0 -428 -4 -435 -9z"/>
<path d="M1704 365 c-4 -8 -4 -22 0 -30 5 -13 62 -15 434 -15 447 0 463 1 441
42 -9 17 -32 18 -440 18 -373 0 -430 -2 -435 -15z"/>
</g>
</svg>
